<svg width="534" height="244" xmlns="http://www.w3.org/2000/svg" xmlns:xlink="http://www.w3.org/1999/xlink" overflow="hidden"><defs><clipPath id="clip0"><rect x="137" y="358" width="534" height="244"/></clipPath></defs><g clip-path="url(#clip0)" transform="translate(-137 -358)"><path d="M468 412.167C468 397.715 479.715 386 494.167 386L643.833 386C658.285 386 670 397.715 670 412.167L670 516.833C670 531.285 658.285 543 643.833 543L494.167 543C479.715 543 468 531.285 468 516.833Z" fill="#BDD7EE" fill-rule="evenodd"/><path d="M151 399.834C151 392.194 157.194 386 164.834 386L394.166 386C401.806 386 408 392.194 408 399.834L408 455.166C408 462.806 401.806 469 394.166 469L164.834 469C157.194 469 151 462.806 151 455.166Z" fill="#F8CBAD" fill-rule="evenodd"/><path d="M163.5 415.833C163.5 413.44 165.44 411.5 167.833 411.5L253.167 411.5C255.56 411.5 257.5 413.44 257.5 415.833L257.5 433.167C257.5 435.56 255.56 437.5 253.167 437.5L167.833 437.5C165.44 437.5 163.5 435.56 163.5 433.167Z" stroke="#C55A11" stroke-width="1.33333" stroke-miterlimit="8" fill="#F4B183" fill-rule="evenodd"/><text fill="#404040" font-family="Calibri,Calibri_MSFontService,sans-serif" font-weight="400" font-size="13" transform="translate(186.853 428)">Stitching</text><path d="M301.5 415.833C301.5 413.44 303.44 411.5 305.833 411.5L391.167 411.5C393.56 411.5 395.5 413.44 395.5 415.833L395.5 433.167C395.5 435.56 393.56 437.5 391.167 437.5L305.833 437.5C303.44 437.5 301.5 435.56 301.5 433.167Z" stroke="#C55A11" stroke-width="1.33333" stroke-miterlimit="8" fill="#F4B183" fill-rule="evenodd"/><text fill="#404040" font-family="Calibri,Calibri_MSFontService,sans-serif" font-weight="400" font-size="13" transform="translate(315.124 428)">Registration</text><path d="M487.5 505.667C487.5 503.366 489.366 501.5 491.667 501.5L651.333 501.5C653.635 501.5 655.5 503.366 655.5 505.667L655.5 522.333C655.5 524.635 653.635 526.5 651.333 526.5L491.667 526.5C489.366 526.5 487.5 524.635 487.5 522.333Z" stroke="#41719C" stroke-width="1.33333" stroke-miterlimit="8" fill="#5B9BD5" fill-rule="evenodd"/><text font-family="Calibri,Calibri_MSFontService,sans-serif" font-weight="700" font-size="14" transform="translate(517.826 518)">molecule</text><text font-family="Calibri,Calibri_MSFontService,sans-serif" font-weight="700" font-size="14" transform="translate(574.159 518)">labelling</text><text fill="#BF9000" font-family="Calibri,Calibri_MSFontService,sans-serif" font-weight="400" font-size="13" transform="translate(260.197 408)">mosaic</text><text fill="#7030A0" font-family="Calibri,Calibri_MSFontService,sans-serif" font-weight="400" font-size="13" transform="translate(154.824 494)">FOV</text><text fill="#7030A0" font-family="Calibri,Calibri_MSFontService,sans-serif" font-weight="400" font-size="13" transform="translate(177.324 494)">-</text><text fill="#7030A0" font-family="Calibri,Calibri_MSFontService,sans-serif" font-weight="400" font-size="13" transform="translate(181.324 494)">Tiles</text><text fill="#BF9000" font-family="Calibri,Calibri_MSFontService,sans-serif" font-weight="400" font-size="13" transform="translate(417.576 409)">r</text><text fill="#BF9000" font-family="Calibri,Calibri_MSFontService,sans-serif" font-weight="400" font-size="13" transform="translate(422.242 409)">-</text><text fill="#BF9000" font-family="Calibri,Calibri_MSFontService,sans-serif" font-weight="400" font-size="13" transform="translate(426.242 409)">mosaic</text><path d="M486.5 403.667C486.5 398.052 491.052 393.5 496.667 393.5L645.333 393.5C650.948 393.5 655.5 398.052 655.5 403.667L655.5 444.333C655.5 449.948 650.948 454.5 645.333 454.5L496.667 454.5C491.052 454.5 486.5 449.948 486.5 444.333Z" stroke="#41719C" stroke-width="1.33333" stroke-miterlimit="8" fill="#5B9BD5" fill-rule="evenodd"/><text font-family="Calibri,Calibri_MSFontService,sans-serif" font-weight="700" font-size="14" transform="translate(530.132 414)">Segmentation</text><path d="M492 428.333C492 425.94 493.94 424 496.333 424L564.667 424C567.06 424 569 425.94 569 428.333L569 445.667C569 448.06 567.06 450 564.667 450L496.333 450C493.94 450 492 448.06 492 445.667Z" fill="#9DC3E6" fill-rule="evenodd"/><text fill="#404040" font-family="Calibri,Calibri_MSFontService,sans-serif" font-weight="700" font-size="16" transform="translate(509.905 442)">Tissue</text><path d="M575 428.333C575 425.94 576.94 424 579.333 424L646.667 424C649.06 424 651 425.94 651 428.333L651 445.667C651 448.06 649.06 450 646.667 450L579.333 450C576.94 450 575 448.06 575 445.667Z" fill="#9DC3E6" fill-rule="evenodd"/><text fill="#404040" font-family="Calibri,Calibri_MSFontService,sans-serif" font-weight="700" font-size="16" transform="translate(592.064 442)">Nucle</text><text fill="#404040" font-family="Calibri,Calibri_MSFontService,sans-serif" font-weight="700" font-size="16" transform="translate(629.898 442)">i</text><path d="M571.833 454.5 571.857 494.222 571.19 494.222 571.167 454.5ZM575.523 492.886 571.527 500.889 567.523 492.891Z"/><text fill="#BF9000" font-family="Calibri,Calibri_MSFontService,sans-serif" font-weight="400" font-size="13" transform="translate(516.084 570)">Cell</text><text fill="#BF9000" font-family="Calibri,Calibri_MSFontService,sans-serif" font-weight="400" font-size="13" transform="translate(538.917 570)">Bin Gene</text><text fill="#BF9000" font-family="Calibri,Calibri_MSFontService,sans-serif" font-weight="400" font-size="13" transform="translate(590.917 570)">Matrix</text><path d="M0.000863723-0.333332 85.0243-0.113021 85.0226 0.553643-0.000863723 0.333332ZM83.7005-3.78313 91.6901 0.237585 83.6797 4.21684Z" transform="matrix(1 0 0 -1 395.5 424.738)"/><path d="M349.5 491.833C349.5 489.992 350.992 488.5 352.833 488.5L432.167 488.5C434.008 488.5 435.5 489.992 435.5 491.833L435.5 505.167C435.5 507.008 434.008 508.5 432.167 508.5L352.833 508.5C350.992 508.5 349.5 507.008 349.5 505.167Z" stroke="#7030A0" stroke-width="1.33333" stroke-miterlimit="8" fill="none" fill-rule="evenodd"/><text fill="#7030A0" font-family="Calibri,Calibri_MSFontService,sans-serif" font-weight="400" font-size="12" transform="translate(361.713 502)">Gene Matrix</text><path d="M257.5 424.167 294.207 424.185 294.206 424.851 257.5 424.833ZM292.875 420.517 300.873 424.521 292.871 428.517Z"/><path d="M0 0 134.121 25.8921" stroke="#000000" stroke-width="0.666667" stroke-miterlimit="8" stroke-dasharray="2.66667 2" fill="none" fill-rule="evenodd" transform="matrix(1 0 0 -1 435.5 498.392)"/><path d="M350.167 498.968 275.5 425.5" stroke="#000000" stroke-width="0.666667" stroke-miterlimit="8" stroke-dasharray="2.66667 2" fill="none" fill-rule="evenodd"/><path d="M571.833 526.5 571.833 546.65 571.167 546.65 571.167 526.5ZM575.5 545.317 571.5 553.317 567.5 545.317Z"/><path d="M0.333333-7.273e-07 0.333424 41.4505-0.333243 41.4505-0.333333 7.273e-07ZM4.00009 40.1172 0.000104987 48.1172-3.99991 40.1172Z" transform="matrix(1 0 0 -1 210.5 484.617)"/><text font-family="Calibri,Calibri_MSFontService,sans-serif" font-weight="700" font-size="14" transform="translate(160.533 376)">Step 1: WSI registration</text><text font-family="Calibri,Calibri_MSFontService,sans-serif" font-weight="700" font-size="14" transform="translate(477.655 378)">Step 2: Molecule</text><text font-family="Calibri,Calibri_MSFontService,sans-serif" font-weight="700" font-size="14" transform="translate(578.155 378)">labelling</text><text font-family="Calibri,Calibri_MSFontService,sans-serif" font-weight="700" font-size="15" transform="translate(210.068 588)">Fig</text><text font-family="Calibri,Calibri_MSFontService,sans-serif" font-weight="400" font-size="15" transform="translate(230.735 588)">Schematic diagram</text><text font-family="Calibri,Calibri_MSFontService,sans-serif" font-weight="400" font-size="15" transform="translate(350.235 588)">of</text><text font-family="Calibri,Calibri_MSFontService,sans-serif" font-weight="400" font-size="15" transform="translate(369.068 588)">StereoCell</text></g></svg>